<svg xmlns="http://www.w3.org/2000/svg" xmlns:xlink="http://www.w3.org/1999/xlink" width="486.221" height="563.181" viewBox="0 0 486.221 563.181">
  <defs>
    <clipPath id="clip-path">
      <path id="SVGID" d="M217,311.379S321.184,713.1,700.494,874.56H214.273Z" transform="translate(-214.273 -311.379)" fill="#5fb448"/>
    </clipPath>
  </defs>
  <g id="Group_16" data-name="Group 16" clip-path="url(#clip-path)">
    <path id="Path_96" data-name="Path 96" d="M214.758,442.488c65.376,30.867,143.688,38.751,213.831,15.106,26.558-9.2,49.713-21.674,75.59-31.525,64.01-24.957,137.558-15.764,196.8,16.419,2.044-21.674-.678-44,0-65.676-65.373-31.525-143.685-38.093-213.825-15.106-23.838,8.538-46.31,19.7-69.462,29.554-65.373,26.928-141.646,19.045-202.934-14.448-2.042,21.674.683,44,0,65.676" transform="translate(-214.758 -245.455)" fill="#5fb448"/>
    <path id="Path_97" data-name="Path 97" d="M214.835,490.4c58.565,27.583,124.622,36.78,189.992,21.674,20.433-5.255,38.818-11.164,57.2-19.7.683-.658,2.044-1.313,2.725-1.971l18.386-7.88c40.86-19.7,84.442-27.586,130.069-21.019,11.577,1.971,21.791,3.942,33.369,6.568,4.086,1.316,8.853,2.629,12.936,3.942,10.216,3.942,19.749,7.226,29.283,11.822a42.259,42.259,0,0,0,9.536,4.6c.681.658,2.044,1.313,2.722,1.971,2.044-21.674-.678-44,0-65.676-3.405-2.629-7.489-3.284-10.894-5.255a125.552,125.552,0,0,0-14.3-5.255c-36.094-13.793-74.229-20.361-113.044-18.39-12.258.658-24.516,1.971-37.455,3.942-7.489,1.313-13.619,3.284-21.108,4.6-30.646,8.538-57.887,22.329-86.487,34.151-59.926,24.957-128.705,21.018-187.27-5.91-5.447-2.629-10.9-5.255-15.664-7.88-1.361,8.536-.681,17.732-.681,26.27,1.364,13.135,0,26.27.681,39.406" transform="translate(-214.835 -160.04)" fill="#5fb448"/>
    <path id="Path_98" data-name="Path 98" d="M214.758,537.831c74.909,34.809,164.115,38.75,241.069,4.6.68-.655,2.044-1.313,2.722-1.971,4.089-1.968,8.855-3.284,12.941-5.252,71.5-39.408,160.71-36.78,229.489,2.626,2.044-22.332-.678-44,0-66.334-50.391-23.645-107.595-33.5-164.115-25.615h-4.086c-25.877,3.942-49.029,11.167-72.865,21.018-.681.655-2.042,1.313-2.725,1.971-4.086,1.968-8.853,3.284-12.939,5.252-71.5,39.408-160.71,36.78-229.491-2.626-2.042,22.331.683,44,0,66.334" transform="translate(-214.758 -74.15)" fill="#5fb448"/>
    <path id="Path_99" data-name="Path 99" d="M214.758,585.225c74.909,34.809,164.115,38.75,241.069,4.6.68-.655,2.044-1.313,2.722-1.971,4.089-1.968,8.855-3.284,12.941-5.252,71.5-39.408,160.71-36.78,229.489,2.626,2.044-22.331-.678-44,0-66.334-50.391-23.644-107.595-33.5-164.115-25.615h-4.086c-25.877,3.942-49.029,11.167-72.865,21.019-.681.655-2.042,1.313-2.725,1.971-4.086,1.968-8.853,3.284-12.939,5.252-71.5,39.408-160.71,36.779-229.491-2.626-2.042,22.332.683,44,0,66.334" transform="translate(-214.758 11.135)" fill="#5fb448"/>
    <path id="Path_100" data-name="Path 100" d="M214.688,394.654c18.386,9.194,38.138,15.761,59.248,21.016,7.489,1.316,14.98,3.284,22.469,4.6,11.58,1.313,22.472,2.626,34.052,3.284,10.214.655,19.747,0,29.96-.658s19.752-1.971,29.966-3.284c9.533-1.971,18.386-3.942,27.921-6.568,27.916-8.538,53.115-21.673,79.673-32.183,59.926-24.957,128.705-21.016,187.268,5.913,5.45,2.626,10.9,5.255,15.663,7.881.683-8.538,1.361-17.732.683-26.27-1.361-13.135,0-26.27-.683-39.406-46.985-22.331-100.1-31.525-153.221-27.586-32.685,2.629-64.01,12.48-93.973,25.615-.683.655-2.044,1.313-2.725,1.971L432.6,336.858c-40.857,19.7-84.442,27.583-130.066,21.016-11.575-1.971-21.791-3.939-33.369-6.568-4.083-1.313-8.853-2.626-12.939-3.942-10.214-3.939-19.749-7.223-29.28-11.819a42.446,42.446,0,0,0-9.536-4.6c-.681-.655-2.042-1.313-2.725-1.968-2.042,21.674.683,44,0,65.676" transform="translate(-214.688 -330.946)" fill="#5fb448"/>
  </g>
</svg>
