<svg xmlns="http://www.w3.org/2000/svg" xmlns:xlink="http://www.w3.org/1999/xlink" width="628.773" height="497" viewBox="0 0 628.773 497">
  <defs>
    <clipPath id="clip-path">
      <path id="SVGID" d="M839.522,311.379s-134.732,354.516-625.249,497H843.046Z" transform="translate(-214.273 -311.379)" fill="#ad792c"/>
    </clipPath>
  </defs>
  <g id="Group_17" data-name="Group 17" transform="translate(-214.273 -311.379)">
    <g id="Group_16" data-name="Group 16" transform="translate(214.273 311.379)" clip-path="url(#clip-path)">
      <path id="Path_96" data-name="Path 96" d="M843.76,431.386c-84.543,27.24-185.815,34.2-276.522,13.331-34.344-8.116-64.288-19.127-97.751-27.82-82.776-22.025-177.887-13.911-254.5,14.489-2.644-19.127.877-38.831,0-57.958C299.527,345.608,400.8,339.812,491.5,360.1c30.827,7.535,59.887,17.387,89.827,26.081,84.54,23.764,183.175,16.807,262.431-12.75,2.64,19.127-.884,38.831,0,57.958" transform="translate(-214.988 -257.507)" fill="#ad792c"/>
      <path id="Path_97" data-name="Path 97" d="M843.76,479.244a536.368,536.368,0,0,1-245.7,19.127c-26.423-4.637-50.2-9.852-73.975-17.387-.883-.581-2.644-1.159-3.524-1.739L496.79,472.29a406.781,406.781,0,0,0-168.2-18.549c-14.972,1.739-28.18,3.479-43.152,5.8-5.284,1.161-11.448,2.32-16.728,3.478-13.212,3.478-25.54,6.376-37.868,10.433a68.112,68.112,0,0,1-12.332,4.057c-.88.581-2.644,1.159-3.52,1.739-2.644-19.127.877-38.831,0-57.958,4.4-2.32,9.684-2.9,14.088-4.637,6.167-1.739,12.328-3.479,18.492-4.637a509.92,509.92,0,0,1,146.187-16.229c15.852.581,31.7,1.739,48.436,3.478,9.684,1.159,17.612,2.9,27.3,4.057,39.631,7.535,74.859,19.7,111.843,30.138,77.5,22.025,166.439,18.549,242.175-5.215,7.044-2.32,14.092-4.637,20.256-6.954,1.76,7.533.88,15.648.88,23.183-1.764,11.592,0,23.183-.88,34.775" transform="translate(-214.988 -187.707)" fill="#ad792c"/>
      <path id="Path_98" data-name="Path 98" d="M843.76,526.712c-96.871,30.718-212.231,34.2-311.746,4.057-.88-.578-2.644-1.159-3.52-1.739-5.287-1.737-11.452-2.9-16.736-4.635-92.464-34.777-207.827-32.458-296.771,2.317-2.644-19.707.877-38.832,0-58.539,65.164-20.866,139.139-29.56,212.231-22.605H432.5c33.464,3.479,63.4,9.855,94.228,18.549.88.578,2.64,1.159,3.524,1.739,5.284,1.737,11.448,2.9,16.732,4.635,92.467,34.777,207.827,32.458,296.774-2.317,2.64,19.707-.884,38.831,0,58.539" transform="translate(-214.988 -117.519)" fill="#ad792c"/>
      <path id="Path_99" data-name="Path 99" d="M843.76,574.106c-96.871,30.718-212.231,34.2-311.746,4.057-.88-.578-2.644-1.159-3.52-1.739-5.287-1.737-11.452-2.9-16.736-4.635-92.464-34.777-207.827-32.458-296.771,2.317-2.644-19.707.877-38.831,0-58.539,65.164-20.866,139.139-29.56,212.231-22.605H432.5c33.464,3.478,63.4,9.855,94.228,18.549.88.578,2.64,1.159,3.524,1.739,5.284,1.737,11.448,2.9,16.732,4.635,92.467,34.777,207.827,32.457,296.774-2.318,2.64,19.707-.884,38.832,0,58.539" transform="translate(-214.988 -47.826)" fill="#ad792c"/>
      <path id="Path_100" data-name="Path 100" d="M843.934,383.59c-23.776,8.113-49.319,13.909-76.619,18.546-9.684,1.161-19.372,2.9-29.057,4.059-14.975,1.159-29.06,2.317-44.035,2.9-13.208.578-25.536,0-38.744-.581s-25.543-1.739-38.751-2.9c-12.328-1.739-23.776-3.478-36.108-5.8-36.1-7.535-68.688-19.127-103.032-28.4-77.5-22.025-166.439-18.546-242.171,5.218-7.048,2.317-14.092,4.637-20.256,6.954-.884-7.535-1.76-15.648-.884-23.183,1.76-11.592,0-23.183.884-34.775,60.76-19.707,129.452-27.82,198.143-24.344,42.268,2.32,82.776,11.014,121.524,22.605.884.578,2.644,1.159,3.524,1.739l23.78,6.954a406.764,406.764,0,0,0,168.2,18.546c14.968-1.739,28.18-3.476,43.152-5.8,5.281-1.159,11.448-2.317,16.732-3.479,13.208-3.476,25.54-6.374,37.864-10.43,3.527-1.739,7.931-2.9,12.331-4.059.88-.578,2.64-1.159,3.524-1.737,2.64,19.127-.884,38.832,0,57.958" transform="translate(-215.161 -327.369)" fill="#ad792c"/>
    </g>
  </g>
</svg>
