<svg xmlns="http://www.w3.org/2000/svg" width="105.253" height="143.549" viewBox="0 0 105.253 143.549">
  <g id="Group_75" data-name="Group 75" transform="translate(-78.453)">
    <path id="Path_142" data-name="Path 142" d="M222.5,68.042,212.035,81.612A63.3,63.3,0,0,0,251.2,77.176V62.16A53.5,53.5,0,0,1,222.5,68.042Z" transform="translate(-67.494 -31.407)" fill="#fff"/>
    <path id="Path_143" data-name="Path 143" d="M189.223,126.479c-1.577-.675-3.135-1.379-4.69-2.085l-9.552,12.38,4.4,2.127a70.412,70.412,0,0,0,12.725,4.545,62.245,62.245,0,0,0,40.377-4.123V124.31c-.524.269-1.06.537-1.6.806C217.852,131.326,202.553,132.235,189.223,126.479Z" transform="translate(-48.772 -62.809)" fill="#fff"/>
    <path id="Path_144" data-name="Path 144" d="M163.31,179.124c-.909-.455-3.484-1.666-3.484-1.666a68.784,68.784,0,0,0-13.833-4.419l-10.6,13.745a49.867,49.867,0,0,1,21.863,6.428c.909.454,3.484,1.666,3.484,1.666,16.476,7.582,35.477,7.021,51.738-.191V179.578A51.177,51.177,0,0,1,163.31,179.124Z" transform="translate(-28.767 -87.43)" fill="#fff"/>
    <path id="Path_145" data-name="Path 145" d="M274.243.472,259.216,19.949c1.509-.3,3.019-.692,4.529-.967a65.433,65.433,0,0,0,11.293-3.926V0A5.6,5.6,0,0,0,274.243.472Z" transform="translate(-91.332)" fill="#fff"/>
    <path id="Path_146" data-name="Path 146" d="M167.737,245.347a36.353,36.353,0,0,1-6.677.737,64.052,64.052,0,0,1-13.342-1.306c-5.826-1.068-13.292-5.579-15.754-6.647s-4.594-2.871-16-4.922a60.633,60.633,0,0,0-11.983-.852,67.578,67.578,0,0,0-10.172.995l-15.356,19.9h.573a53.1,53.1,0,0,1,23.667-6.307,51.372,51.372,0,0,1,24.531,5.455c.6.3,1.192.574,1.783.852,25.79,12.165,39.391,6.491,42.676,5.507l12.022-4.727V240.081a61.459,61.459,0,0,1-6.78,2.886A57.733,57.733,0,0,1,167.737,245.347Z" transform="translate(0 -117.392)" fill="#fff"/>
  </g>
</svg>
