<?xml version="1.0" encoding="utf-8"?>
<!-- Generator: Adobe Illustrator 25.2.3, SVG Export Plug-In . SVG Version: 6.00 Build 0)  -->
<svg version="1.1" id="Layer_1" xmlns="http://www.w3.org/2000/svg" xmlns:xlink="http://www.w3.org/1999/xlink" x="0px" y="0px"
	 viewBox="0 0 192.5 192.5" style="enable-background:new 0 0 192.5 192.5;" xml:space="preserve">
<style type="text/css">
	.st0{fill:#FFFFFF;}
	.st1{fill:#A4A4A4;}
	.st2{clip-path:url(#SVGID_2_);}
	.st3{fill:#BF8C42;}
</style>
<path id="Path_101" class="st0" d="M96.2,192.5C43,192.5,0,149.3,0,96.2C0.1,43.8,42,1,94.4,0c0.6,0,1.2,0,1.9,0
	c53.2,0.1,96.2,43.2,96.1,96.4c-0.1,52.4-42,95.1-94.4,96.1C97.4,192.5,96.8,192.5,96.2,192.5L96.2,192.5z"/>
<path id="Path_102" class="st1" d="M96.2,188.9C45,188.8,3.6,147.3,3.7,96.1C3.8,45.7,44.1,4.6,94.5,3.6c0.6,0,1.2,0,1.8,0
	c51.2,0.1,92.6,41.6,92.5,92.7c-0.1,50.4-40.4,91.5-90.9,92.5C97.4,188.9,96.8,188.9,96.2,188.9L96.2,188.9z"/>
<path id="Path_103" class="st0" d="M5.5,98C6.4,148.1,47.8,188,98,187s90-42.3,89.1-92.5s-42.3-90-92.5-89.1c0,0,0,0,0,0
	C44.4,6.5,4.6,47.8,5.5,98"/>
<g id="Group_20" transform="translate(323.964 278.696)">
	<g id="Group_19">
		<g>
			<defs>
				<rect id="SVGID_1_" x="-310.6" y="-265.4" width="165.8" height="165.8"/>
			</defs>
			<clipPath id="SVGID_2_">
				<use xlink:href="#SVGID_1_"  style="overflow:visible;"/>
			</clipPath>
			<g id="Group_18" class="st2">
				<path id="Path_104" class="st3" d="M-229.3-265.3c-45.8,0.9-82.2,38.7-81.3,84.5c0.9,45.8,38.7,82.2,84.5,81.3
					s82.2-38.7,81.3-84.5c0,0,0,0,0,0C-145.7-229.8-183.5-266.1-229.3-265.3 M-283.2-124.9c-31.8-30.6-32.7-81.2-2.1-113
					s81.2-32.7,113-2.1s32.7,81.2,2.1,113c-14.7,15.3-34.9,24.1-56.1,24.4C-247.4-102-267.9-110.1-283.2-124.9"/>
			</g>
		</g>
	</g>
</g>
<path id="Path_105" class="st3" d="M38.9,96.3C38.9,64.6,64.6,39,96.3,39s57.3,25.7,57.3,57.3c0,31.6-25.7,57.3-57.3,57.3
	C64.6,153.6,38.9,127.9,38.9,96.3"/>
<path id="Path_106" class="st0" d="M69.1,114c-0.6,16.2,9.9,10.7,9.9,14.6c0,0.4,0.4,1.5-2.3,1.5c-3.4,0-5.4-0.4-9.8-0.4
	c-4.6,0-8,0.4-9.4,0.4c-1.4,0-1.8-0.8-1.8-1.3c0-3.4,7.8-1,8.2-11l1.3-38.2c0.6-15.7-9.6-11.2-9.6-15.4c0-0.7,0.5-1.2,1.1-1.3
	c1.2,0,2.7,0.4,5.7,0.4c2.2,0,5.7-0.4,8.8-0.4c1.1,0,2-0.1,3.3,2.8l20.9,45.6c0.4,0.9,0.7,1.5,1.2,1.5s1.4-1.7,1.5-2l22-46
	c0.3-0.7,0.6-1.9,2.4-1.9c2.3,0,4.1,0.4,5.5,0.4c1.7,0,3.5-0.4,6.2-0.4c2.6,0,2.8,0.4,2.8,1.1c0,3.4-9.3-0.3-8.9,10.6l1.6,42.1
	c0.5,12.4,9.2,8.3,9.2,11.8c0,1.6-1.2,1.6-4.6,1.6c-2.8,0-5.4-0.4-8.2-0.4c-6.2,0-8.5,0.4-10.6,0.4c-2,0-4.4,0.3-4.4-1.4
	c0-3.2,7.4-0.1,6.8-10.6l-1.4-28.8c-0.1-2.9-0.2-4.3-0.8-4.3c-0.4,0-1.5,1.9-2.9,5l-18,37.5c-0.6,1.2-0.9,2.7-2.5,2.7
	c-1.4,0-1.9-1.6-2.4-2.7L71.8,86.6C71.5,86,71.1,85,70.7,85c-0.6,0-0.6,1.7-0.6,2.4L69.1,114z"/>
<path id="Path_107" class="st3" d="M58.7,151.8c-0.4,0.6-0.4,0.7,0.1,1l0.8,0.5c1.1,0.7,2-0.5,2.2-0.3c0.1,0.1,0.3,0.1,0,0.5
	l-1.4,2.4c-0.1,0.2-0.3,0.7-0.6,0.5c-0.4-0.3,0.9-1.4-0.5-2.3l-1-0.6c-0.6-0.4-0.7-0.2-1.2,0.6l-1.1,1.7c-0.5,0.8-0.9,1.3,0.1,1.9
	c3.3,2.1,4.2,0.3,4.7,0.6c0.1,0,0.1,0.1,0,0.4c-0.7,1.1-2.1,1.5-3.2,0.9c-2-1.3-2.8-1.9-3.4-2.3c-0.4-0.3-1-0.6-1.7-1.1
	c-0.2-0.1-0.2-0.2-0.2-0.3c0.4-0.6,0.9,0.8,2-0.9l4-6.2c0.8-1.2-1-1.7-0.6-2.3c0.1-0.1,0.2-0.2,0.4,0c0.5,0.4,1.5,1,3.5,2.3
	c0.9,0.6,1.9,1.2,3,1.9c0.1,0.1,0.2,0.3,0.1,0.4l-0.8,1.3c-0.1,0.2-0.3,0.7-0.6,0.5c-0.6-0.4,1.4-1.3-1.1-2.9
	c-1.6-1-1.7-1.1-2.3-0.1L58.7,151.8z"/>
<path id="Path_108" class="st3" d="M63.4,159.3c0-0.2,0.1-0.7,0.5-0.5c0.2,0.1,0.2,0.2,0.2,0.5c-0.2,1.6,0.1,3.3,1.7,4
	c1,0.5,2.2,0.2,2.7-0.7c0-0.1,0.1-0.1,0.1-0.2c0.6-1.2-0.3-1.8-2.1-3.9c-1-1.1-1.6-2.1-0.9-3.6c0.6-1.5,2.4-2.3,3.9-1.7
	c0.1,0,0.2,0.1,0.2,0.1c1.2,0.5,1.5,1.4,2,1.6c0.2,0.1,0.6,0,0.8,0.1c0.2,0.1,0.1,0.3,0,0.6l-0.7,2c-0.1,0.3-0.2,0.5-0.6,0.3
	c-0.3-0.2,0.7-2.9-1.8-4.1c-0.8-0.4-1.7-0.2-2.2,0.5c0,0.1-0.1,0.2-0.1,0.2c-0.4,1,0.3,1.5,1.8,3.2c1.2,1.4,1.9,2.4,1.1,4.3
	c-0.7,1.7-2.6,2.5-4.4,1.8c-0.1,0-0.2-0.1-0.3-0.1c-0.8-0.5-1.5-1-2.2-1.7c-0.3-0.3-0.3-0.4-0.2-0.7L63.4,159.3z"/>
<path id="Path_109" class="st3" d="M78.1,158.5c0.2-0.7,0.1-0.9-0.6-1l-1.3-0.4c-1.7-0.5-1.8,1.6-2.5,1.5c-0.3-0.1-0.1-0.4,0-0.6
	l0.8-1.9c0.1-0.1,0.1-0.4,0.3-0.3c1.4,0.4,2.4,0.7,4.7,1.4s3.3,0.8,4.7,1.2c0.2,0.1,0.2,0.3,0.1,0.4l-0.2,1.5c0,0.2,0,0.8-0.4,0.7
	c-0.6-0.2,0.4-1.7-1.4-2.2l-1.3-0.4c-0.6-0.2-0.8-0.1-1,0.6l-1.9,6.9c-0.5,1.9,1.6,2,1.4,2.4c-0.1,0.4-0.4,0.2-0.8,0.1
	c-0.6-0.2-1.1-0.4-2.1-0.7s-1.5-0.4-2.2-0.5c-0.3-0.1-0.5-0.1-0.4-0.5c0.2-0.6,1.7,0.6,2.2-1.2L78.1,158.5z"/>
<path id="Path_110" class="st3" d="M86.5,160.6c0.1-1.6-1.6-1.2-1.5-1.8c0-0.1,0.2-0.2,0.3-0.2c0.3,0,0.6,0.1,2.2,0.2
	c0.8,0.1,1.6,0.1,2.4,0.1c2.1,0.2,6.7,0.8,6.3,5.7c-0.3,3.2-3.1,5.7-6.3,5.5c-1.8-0.2-2.7-0.3-3.3-0.3c-0.5,0-1,0-1.5-0.1
	c-0.3,0-0.6,0-0.6-0.3c0-0.6,1.3,0.1,1.4-1.3L86.5,160.6z M87.8,168.3c-0.1,1,1.1,1.2,1.7,1.3c2.5,0.2,4.3-1.2,4.6-4.5
	c0.1-1.5-0.3-5.2-4.3-5.5c-1.2-0.1-1.3,0.3-1.4,1.4L87.8,168.3z"/>
<path id="Path_111" class="st3" d="M108.7,167.6c0.3,1.8,2,0.6,2,1.2c0,0.3-0.3,0.3-0.8,0.4c-0.5,0.1-1.4,0.2-1.9,0.2
	c-0.6,0.1-1.9,0.4-2.2,0.4c-0.1,0-0.2-0.2-0.2-0.2c-0.1-0.6,1.6-0.1,1.4-1.6l-1.1-6.5c-0.1-0.9-0.4-0.9-0.7-0.8
	c-0.3,0.1-0.6,0.2-0.9,0.3c-0.2,0-0.3-0.2-0.3-0.2c0-0.3,0.3-0.4,0.5-0.5c1-0.3,1.9-0.9,2.6-1.7c0.1,0,0.2,0,0.2,0.1
	c0,0.3,0,1,0.1,1.6L108.7,167.6z"/>
<path id="Path_112" class="st3" d="M115.3,168c-0.1-0.3,0.5-0.5,1.5-1.3c1.2-1,1.8-2.6,1.7-4.1c0-0.1-0.1-0.2-0.2-0.2
	c-0.1,0-0.3,0.3-0.5,0.6c-0.4,0.4-1,0.7-1.6,0.9c-1.5,0.5-3.1-0.3-3.5-1.8c0-0.1-0.1-0.2-0.1-0.3c-0.7-1.9,0.3-4.1,2.2-4.8
	c0.1,0,0.3-0.1,0.4-0.1c2.4-0.7,4.2,0.8,4.9,3.1c1.4,4.6-2.6,7.6-4.4,8.2C115.5,168.1,115.3,168.1,115.3,168 M116.9,162.5
	c1.1-0.3,1.6-1.4,1.3-2.5c0-0.1,0-0.1-0.1-0.2c-0.4-1.3-1.7-3-3.2-2.5c-1.4,0.4-1.4,1.7-1,2.9C114.3,161.6,115.4,163,116.9,162.5"/>
<path id="Path_113" class="st3" d="M123.6,153.5c1.3-0.6,3.2-0.6,3.9,0.9c0.4,1,0.1,2.2-0.9,2.8l0,0c1.5,0,2.7,0.1,3.5,1.8
	c0.9,2-0.4,3.7-2.2,4.6c-2.7,1.3-4,0-4.6-1.1c-0.5-1.1-0.3-2.3,0.5-3.2c-1-0.1-1.8-0.6-2.2-1.5C120.9,156,122,154.3,123.6,153.5
	 M123.5,154.2c-0.9,0.3-1.4,1.4-1,2.3c0,0,0,0,0,0c0.6,1.2,2.9,0.9,3.3,0.7c0.8-0.3,1.1-1.2,0.8-2c0-0.1-0.1-0.1-0.1-0.2
	c-0.5-1-1.7-1.5-2.7-1C123.7,154,123.6,154.1,123.5,154.2 M124.6,159.3c-0.6,0.5-0.7,1.4-0.3,2.1c0.7,1.4,2,2.3,3.6,1.6
	c1.1-0.5,1.9-1.5,1.4-2.7c-0.4-0.9-1.4-1.4-2.3-1.1L124.6,159.3z"/>
<path id="Path_114" class="st3" d="M132.3,149.5c0-0.3,0.1-1.4,0.4-1.5c0.2-0.1,0.5,0.3,0.6,0.5l2.9,4.4c0.1,0.2,0.2,0.3,0.4,0.2
	l0.5-0.3c0.4-0.3,0-0.8,0.2-0.9c0.1-0.1,0.2,0,0.2,0c0,0,0,0,0,0c0.4,0.6,1.1,1.7,0.5,2.1l-0.6,0.4c-0.2,0.1-0.1,0.2,0,0.4l1.8,2.7
	c0.1,0.2-1,1.2-1.2,1.3c-0.1,0.1-0.2,0.1-0.2,0c-0.2-0.3-0.1-0.3-0.4-0.8l-1.4-2.1c-0.3-0.5-0.2-0.4-0.6-0.2l-2.8,1.9
	c-0.3,0.2-0.6,0.5-0.9,0.1c-0.4-0.6-0.1-2.5,0-3.1L132.3,149.5z M133,151.1c-0.1-0.2-0.2-0.3-0.3-0.3s0,0.3-0.1,0.5l-0.3,4
	c0,0.3-0.1,0.4,0,0.5c0,0.1,0.2,0,0.5-0.2l1.8-1.2c0.4-0.2,0.3-0.3,0.1-0.6L133,151.1z"/>
<path id="Path_115" class="st3" d="M30.9,91.4c2.7,0.5,2-1.4,2.7-1.3c0.1,0,0.3,0,0.2,0.4c-0.1,0.6-0.2,0.9-0.3,1.6
	c-0.1,0.8-0.1,1.3-0.2,1.5s-0.2,0.3-0.3,0.3c-0.6-0.1,0-1.3-1.6-1.6l-6.2-1.1c-2.6-0.5-2.1,1.3-2.8,1.2c-0.1,0-0.2-0.1-0.2-0.2
	c0-0.2,0.1-0.4,0.2-0.9c0.1-0.4,0.1-1,0.1-1.5c0-0.2,0-0.3,0.5-0.5l8-2.3c0.2,0,0.3-0.1,0.3-0.2s-0.2-0.3-0.3-0.3l-7-4.7
	c-0.2-0.1-0.3-0.3-0.2-0.4c0-0.4,0.2-0.7,0.2-0.9c0-0.3,0-0.6,0.1-1c0.1-0.4,0.1-0.4,0.2-0.4c0.6,0.1-0.3,1.5,1.5,1.7l7,0.8
	c2.1,0.2,1.6-1.3,2.2-1.2c0.3,0,0.2,0.2,0.2,0.8c-0.1,0.5-0.2,0.9-0.3,1.3c-0.1,1-0.1,1.4-0.2,1.8c0,0.3-0.1,0.7-0.3,0.7
	c-0.5-0.1,0.2-1.2-1.6-1.4L28,82.9c-0.5,0-0.7-0.1-0.7,0c0,0.1,0.3,0.3,0.8,0.6l5.7,3.9c0.2,0.1,0.4,0.2,0.4,0.5s-0.3,0.3-0.5,0.3
	l-7.2,2c-0.1,0-0.3,0.1-0.3,0.1c0,0.1,0.3,0.1,0.4,0.2L30.9,91.4z"/>
<path id="Path_116" class="st3" d="M30.1,73.9c0.6,0.2,0.7,0.3,1-0.4l0.3-0.9c0.5-1.3-0.9-1.8-0.8-2.1c0-0.1,0.1-0.3,0.5-0.1
	l2.7,0.8c0.2,0.1,0.8,0.2,0.6,0.5c-0.2,0.5-1.6-0.5-2.2,1l-0.4,1.1c-0.2,0.7,0,0.7,0.8,1l1.9,0.7c0.9,0.3,1.4,0.6,1.8-0.5
	c1.3-3.7-0.7-4.2-0.5-4.7c0-0.1,0.1-0.1,0.4,0c1.2,0.4,2,1.7,1.7,3c-0.8,2.3-1.2,3.1-1.5,3.9c-0.2,0.5-0.3,1.1-0.6,1.9
	c-0.1,0.2-0.2,0.3-0.3,0.2c-0.7-0.2,0.5-1.1-1.3-1.7l-7-2.5c-1.3-0.5-1.5,1.4-2.1,1.2c-0.2-0.1-0.2-0.3-0.1-0.4
	c0.2-0.6,0.7-1.7,1.5-3.9c0.4-1.1,0.7-2.1,1.2-3.4c0-0.2,0.2-0.3,0.4-0.2c0,0,0,0,0,0l1.5,0.5c0.2,0.1,0.7,0.2,0.6,0.5
	c-0.2,0.7-1.6-1.1-2.6,1.8c-0.6,1.8-0.7,1.9,0.4,2.2L30.1,73.9z"/>
<path id="Path_117" class="st3" d="M31.7,64.2c-1.5-0.9-1.9,0.9-2.4,0.6c-0.1-0.1-0.1-0.3,0-0.4c0.4-0.6,0.5-0.7,1-1.6
	c0.5-0.9,1-1.9,1.5-2.8c1.7-3,3.8-2.2,4.4-1.8c0.7,0.4,1.2,1,1.3,1.8c0.1,0.6,0,1,0.1,1.1c0.1,0,2.7,0,5,0c0.2,0,0.4-0.2,0.5-0.4
	c0.1-0.1,0.1-0.3,0.2-0.5c0.1-0.1,0.2-0.2,0.3-0.1c0,0,0,0,0,0c0.4,0.2,0.2,1.3-0.1,1.9c-0.6,1.1-1.7,1-2.8,1L37.9,63
	c-0.6-0.1-1.2,0.2-1.4,0.8c-0.4,0.7-0.3,0.7,0.2,1l2.4,1.3c1.5,0.8,1.7-0.8,2.2-0.6c0.1,0.1,0.1,0.2,0,0.5c-0.1,0.2-0.4,0.6-0.7,1.1
	c-0.4,0.8-0.8,1.5-1.1,2.2c-0.1,0.1-0.2,0.5-0.5,0.3c-0.4-0.2,0.6-1.1-1.1-2.1L31.7,64.2z M35.1,63.9c0.4,0.2,0.6-0.3,0.9-0.7
	c1.2-2.1,0.5-2.6-0.4-3.1c-1.1-0.8-2.6-0.6-3.4,0.5c-0.1,0.1-0.1,0.2-0.2,0.3c-0.3,0.5-0.5,0.9,0.3,1.4L35.1,63.9z"/>
<path id="Path_118" class="st3" d="M45.8,55.7c1.5,1.2,2-0.6,2.5-0.3c0.1,0.1,0.1,0.3-0.1,0.5c-0.4,0.5-0.8,0.9-1.5,1.9
	c-0.4,0.5-0.8,1.1-1,1.4c-0.1,0.1-0.2,0.1-0.2,0c0,0,0,0,0,0c-0.4-0.3,0.6-1-0.6-1.9l-6-4.7c-1.1-0.9-1.9,0.8-2.3,0.5
	c-0.2-0.2,0.1-0.5,0.1-0.6c0.4-0.5,0.8-0.9,1.2-1.4s0.6-0.9,1.2-1.6c0.3-0.4,0.4-0.4,0.5-0.3c0.4,0.3-0.8,0.9,0.4,1.8L45.8,55.7z"/>
<path id="Path_119" class="st3" d="M43.8,46.8c-1.1-1.2-2,0.4-2.4-0.1c-0.1-0.1-0.1-0.3,0-0.4c0.2-0.2,0.5-0.4,1.6-1.4
	c0.6-0.6,1.1-1.2,1.7-1.7c1.5-1.4,5.1-4.4,8.5-0.8c2.2,2.4,2.2,6.1-0.2,8.3c-1.3,1.3-2,1.8-2.4,2.2c-0.4,0.3-0.7,0.7-1,1
	c-0.2,0.2-0.4,0.5-0.6,0.3c-0.4-0.4,0.9-0.9-0.1-1.9L43.8,46.8z M50.3,50.9c0.7,0.8,1.6,0,2.1-0.4c1.8-1.7,2-4.1-0.3-6.4
	c-1-1.1-4.1-3.2-6.9-0.5c-0.9,0.8-0.7,1.2,0.1,2L50.3,50.9z"/>
<path id="Path_120" class="st3" d="M60.6,42.3c1.1,1.6,2.1,0,2.4,0.4c0.1,0.1,0,0.3-0.3,0.5c-0.5,0.3-1,0.6-2,1.3
	c-0.6,0.4-1.1,0.8-1.4,1c-0.1,0.1-0.2,0-0.2,0c0,0,0,0,0,0c-0.3-0.5,0.9-0.8,0-2l-4.3-6.3c-0.8-1.2-2,0.2-2.4-0.3
	c-0.1-0.2,0.2-0.4,0.3-0.5c0.5-0.3,1-0.6,1.5-1s0.9-0.7,1.6-1.2c0.4-0.3,0.5-0.3,0.6-0.1c0.3,0.4-1,0.6-0.2,1.9L60.6,42.3z"/>
<path id="Path_121" class="st3" d="M65.6,37.1c-0.2,0.1-0.5,0.3-0.4,1.4c0,0.4,0.1,0.9,0.2,1.3c0.5,1,1.9,0.1,2.1,0.5
	c0.1,0.3-0.3,0.4-0.6,0.6c-0.5,0.2-0.9,0.4-1.4,0.6c-0.4,0.2-0.8,0.5-1.2,0.7c-0.2,0.1-0.4,0.2-0.5,0c-0.2-0.3,0.6-0.6,0.6-1.6
	L64.1,30c0-0.3-0.1-0.6,0.1-0.7c0.1-0.1,0.2,0,0.6,0.3l8,6.9c0.9,0.8,1.5-0.1,1.7,0.3c0.1,0.2,0,0.3-0.4,0.5
	c-0.5,0.2-0.9,0.4-1.9,0.8c-0.6,0.3-1.1,0.6-1.5,0.8c-0.3,0.1-0.4,0.2-0.5,0c-0.2-0.4,0.9-0.7,0.5-1.6c-0.2-0.3-0.4-0.6-0.7-0.8
	c-1-0.9-1.1-1-1.5-0.8L65.6,37.1z M67.6,35.2c0.3-0.1,0.5-0.2,0.4-0.3c-0.1-0.2-0.2-0.3-0.4-0.5l-2.4-2c-0.1-0.1-0.1-0.1-0.2-0.1
	c0,0-0.1,0.1-0.1,0.2l0.1,3.1c0,0.2,0,0.4,0.1,0.6c0.1,0.1,0.3,0,0.5-0.1L67.6,35.2z"/>
<path id="Path_122" class="st3" d="M74.9,28.5c-0.7-3-2.2-1.5-2.4-2.3c0-0.1,0-0.3,0.2-0.3c0,0,0,0,0,0c0.3-0.1,0.6-0.1,0.9-0.1
	c0.4-0.1,0.8-0.3,1.6-0.5c0.5-0.1,0.3,0,0.7,0.3l7.8,5.3c0.2,0.2,0.5,0.3,0.6,0.3c0.1,0,0.1-0.2,0-0.6L83,25.4
	c-0.4-1.4-2.2-0.7-2.3-1.2c0-0.1,0-0.3,0.1-0.3c0,0,0,0,0,0c0.2-0.1,0.7-0.1,1.8-0.4c1-0.2,1.5-0.4,1.6-0.5c0.3-0.1,0.3,0.1,0.3,0.1
	c0.1,0.5-1.3,0.4-0.9,2l2.1,8.6c0.1,0.3,0.1,0.5-0.1,0.5c-0.2,0-0.3,0-0.4-0.1L76,28c-0.1-0.1-0.2-0.1-0.3-0.1s-0.1,0.1-0.1,0.3
	l1.3,5.2c0.7,3,2.4,1.4,2.6,2.2c0,0.2-0.3,0.3-0.5,0.3c-0.8,0.2-1.3,0.3-1.8,0.4c-0.5,0.1-0.9,0.3-1.3,0.4c-0.2,0-0.5,0.2-0.5-0.1
	c-0.1-0.6,1.4-0.7,1-2.3L74.9,28.5z"/>
<path id="Path_123" class="st3" d="M99.8,33.4c-0.2,0.4-0.3,0.5-0.4,0.5c-0.2,0-0.3-0.2-0.6-0.9l-3.5-9.4c-0.1-0.5-0.6-0.9-1.1-1
	c0,0-0.2-0.1-0.2-0.2c0-0.4,0.5-0.2,0.7-0.2c0.5,0,1.1,0.1,1.6,0.1c1,0,1.5,0,1.7,0c0.5,0,0.6,0,0.6,0.3c0,0.4-1,0.1-1,0.8
	c0,0.8,0.2,1.5,0.5,2.2l1.8,5.2c0,0.1,0.1,0.3,0.2,0.4c0.1,0,0.2-0.2,0.2-0.3l2.4-4.7c0.3-0.6,0.5-1.2,0.6-1.8
	c0.1-1.5-1.6-1-1.5-1.5c0-0.3,0.5-0.2,0.6-0.2c0.5,0,0.9,0.1,1.3,0.1s0.9,0,1.4,0c0.3,0,0.6,0,0.5,0.2c0,0.4-0.7,0.3-1.1,1.2
	L99.8,33.4z"/>
<path id="Path_124" class="st3" d="M110.2,33.1c-0.4,1.9,1.5,1.5,1.4,2.1c0,0.2-0.2,0.2-0.5,0.1c-0.6-0.1-1.1-0.3-2.4-0.5
	c-0.7-0.1-1.3-0.2-1.7-0.3c-0.1,0-0.2-0.1-0.1-0.2c0,0,0,0,0,0c0.1-0.5,1.1,0.1,1.4-1.4l1.5-7.4c0.3-1.4-1.6-1.3-1.4-1.9
	c0-0.3,0.4-0.1,0.6-0.1c0.6,0.1,1.2,0.3,1.7,0.4c0.6,0.1,1.1,0.2,2,0.4c0.5,0.1,0.5,0.1,0.5,0.3c-0.1,0.5-1.2-0.3-1.5,1.2
	L110.2,33.1z"/>
<path id="Path_125" class="st3" d="M117,28.3c1.1-2.8-1-2.5-0.7-3.2c0-0.1,0.2-0.2,0.3-0.2c0,0,0,0,0,0c0.3,0.1,0.5,0.3,0.8,0.4
	c0.4,0.1,0.8,0.2,1.6,0.5c0.5,0.2,0.3,0.2,0.4,0.6l3.5,8.8c0.1,0.3,0.2,0.5,0.3,0.6c0.1,0,0.2-0.1,0.3-0.5l1.9-4.9
	c0.5-1.3-1.4-1.8-1.2-2.2c0-0.1,0.2-0.2,0.3-0.2c0,0,0,0,0,0c0.2,0.1,0.6,0.3,1.7,0.7c0.9,0.4,1.5,0.5,1.6,0.5
	c0.3,0.1,0.2,0.2,0.2,0.3c-0.2,0.4-1.3-0.4-1.9,1.2l-3.1,8.3c-0.1,0.3-0.2,0.4-0.4,0.4c-0.2-0.1-0.3-0.2-0.3-0.4l-4.2-10.4
	c-0.1-0.2-0.1-0.3-0.2-0.3s-0.2,0.1-0.2,0.2l-1.9,5c-1.1,2.8,1.2,2.5,0.9,3.2c-0.1,0.2-0.4,0.1-0.6,0c-0.7-0.3-1.2-0.5-1.7-0.7
	c-0.5-0.2-0.9-0.3-1.3-0.4c-0.2-0.1-0.5-0.1-0.4-0.4c0.2-0.6,1.5,0.2,2.1-1.3L117,28.3z"/>
<path id="Path_126" class="st3" d="M131.9,36.2c-0.4,0.6-0.4,0.7,0.2,1l0.8,0.5c1.1,0.7,2-0.5,2.2-0.3c0.1,0.1,0.3,0.1,0,0.5
	l-1.4,2.5c-0.1,0.2-0.3,0.7-0.6,0.5c-0.4-0.3,0.8-1.5-0.6-2.3l-1-0.6c-0.6-0.4-0.7-0.2-1.2,0.6l-1.1,1.7c-0.5,0.8-0.9,1.3,0.1,1.9
	c3.3,2,4.2,0.2,4.7,0.5c0.1,0,0.1,0.1,0,0.4c-0.6,1.1-2.1,1.6-3.2,1c-2-1.3-2.8-1.8-3.5-2.2c-0.4-0.3-1-0.5-1.8-1
	c-0.2-0.1-0.2-0.2-0.2-0.3c0.4-0.6,0.9,0.7,2-0.9l3.9-6.3c0.8-1.2-1-1.7-0.7-2.3c0.1-0.1,0.3-0.2,0.4-0.1c0,0,0,0,0,0
	c0.5,0.3,1.5,1,3.5,2.3c1,0.6,1.9,1.1,3.1,1.8c0.1,0.1,0.2,0.3,0.1,0.4c0,0,0,0,0,0l-0.8,1.4c-0.1,0.2-0.3,0.7-0.6,0.5
	c-0.6-0.4,1.4-1.3-1.2-2.9c-1.6-1-1.7-1-2.3-0.1L131.9,36.2z"/>
<path id="Path_127" class="st3" d="M141.3,39.4c0.3-1.3-0.7-1.6-0.4-2c0.1-0.1,0.3,0,0.5,0.2c0.2,0.2,0.5,0.5,1.1,1
	c0.5,0.4,1,0.9,1.8,1.5c0.2,0.1,0.1,0.3,0.1,0.3c-0.2,0.3-0.8-0.4-1.2,0c-0.2,0.2-0.3,0.4-0.3,0.7l-0.9,3.1
	c-0.2,0.6-0.2,0.8-0.1,0.9c0.1,0.1,0.2,0,0.6-0.1l2.8-1c0.3-0.1,0.6-0.2,0.8-0.5c0.7-0.8-0.7-1.5-0.4-1.9c0.1-0.1,0.2-0.1,0.4,0
	s0.4,0.4,1,0.9c0.9,0.8,1.1,0.9,1.4,1.2c0.1,0.1,0.2,0.2,0.1,0.3c-0.3,0.3-0.6-0.4-2.5,0.3L142,46c-0.3,0.1-0.6,0.3-0.8,0.6
	l-1.5,1.8c-1.3,1.5,0.9,2,0.3,2.6c-0.1,0.1-0.3,0-0.5-0.2c-0.5-0.6-1.1-1.1-1.7-1.6c-1.1-0.9-1.5-1.2-1.8-1.5
	c-0.2-0.2-0.3-0.3-0.2-0.4c0.5-0.5,1.2,1.3,2.5-0.2l1.4-1.5c0.3-0.2,0.4-0.6,0.5-0.9L141.3,39.4z"/>
<path id="Path_128" class="st3" d="M146.5,52.5c-0.2-0.2-0.4-0.4-1.5,0c-0.4,0.1-0.8,0.3-1.2,0.5c-0.9,0.7,0.4,1.9,0.1,2.2
	c-0.2,0.2-0.5-0.2-0.7-0.5c-0.3-0.4-0.6-0.8-0.9-1.2c-0.3-0.4-0.6-0.7-0.9-1c-0.1-0.2-0.3-0.4-0.2-0.5c0.3-0.2,0.7,0.5,1.7,0.2
	l10.1-2.7c0.3-0.1,0.5-0.2,0.7,0c0.1,0.1,0.1,0.2-0.2,0.6l-4.8,9.4c-0.5,1.1,0.5,1.4,0.1,1.7c-0.2,0.2-0.3,0-0.5-0.3
	c-0.4-0.4-0.6-0.8-1.2-1.6c-0.4-0.5-0.9-1-1.2-1.3c-0.2-0.2-0.3-0.4-0.2-0.5c0.4-0.3,0.9,0.7,1.7,0.1c0.3-0.2,0.5-0.6,0.6-0.9
	c0.6-1.2,0.7-1.3,0.4-1.7L146.5,52.5z M148.8,54c0.2,0.2,0.3,0.4,0.4,0.3c0.1-0.1,0.3-0.3,0.3-0.5L151,51c0-0.1,0.1-0.1,0-0.2
	c0,0-0.1-0.1-0.3,0l-2.9,0.8c-0.2,0-0.4,0.1-0.6,0.2c-0.1,0.1,0,0.3,0.2,0.5L148.8,54z"/>
<path id="Path_129" class="st3" d="M158,59.1c1.6-0.8,0.2-2.1,0.7-2.3c0.1-0.1,0.3,0,0.4,0.2c0.3,0.6,0.3,0.8,0.8,1.7
	c0.5,0.9,1.1,1.9,1.5,2.8c1.6,3.1-0.2,4.4-0.8,4.7c-0.7,0.4-1.5,0.4-2.2,0.1c-0.5-0.2-0.9-0.6-1-0.5c-0.1,0-1.5,2.3-2.7,4.2
	c-0.1,0.2-0.1,0.4,0.1,0.6c0.1,0.1,0.2,0.2,0.3,0.4c0.1,0.1,0,0.2-0.1,0.3c0,0,0,0,0,0c-0.4,0.2-1.2-0.5-1.5-1.1
	c-0.6-1.1,0.1-2,0.6-2.9l1.6-2.3c0.4-0.5,0.5-1.2,0.1-1.7c-0.4-0.7-0.4-0.6-0.9-0.3l-2.4,1.3c-1.5,0.8-0.2,1.9-0.7,2.1
	c-0.1,0.1-0.3,0-0.4-0.3c-0.1-0.2-0.3-0.6-0.6-1.2c-0.4-0.8-0.8-1.4-1.2-2.1c-0.1-0.2-0.3-0.4,0-0.6c0.4-0.2,0.6,1.1,2.3,0.2
	L158,59.1z M156.4,62.1c-0.4,0.2-0.1,0.7,0.1,1.1c1.1,2.1,2,1.8,2.8,1.3c1.3-0.5,1.9-1.9,1.4-3.2c0-0.1-0.1-0.2-0.1-0.3
	c-0.3-0.5-0.5-0.9-1.4-0.5L156.4,62.1z"/>
<path id="Path_130" class="st3" d="M163.9,71.2c1.5-0.5,0.6-1.9,1.1-2.1c0.1,0,0.3,0.1,0.3,0.2c0.1,0.3,0.1,0.6,0.6,2.1
	c0.2,0.8,0.5,1.5,0.8,2.3c0.6,2,1.7,6.5-3,8c-3.1,1-6.4-0.8-7.4-3.8c-0.5-1.8-0.7-2.6-0.9-3.2c-0.1-0.5-0.3-0.9-0.5-1.4
	c-0.1-0.3-0.2-0.6,0-0.7c0.6-0.2,0.4,1.2,1.7,0.8L163.9,71.2z M157.3,75.2c-1,0.3-0.8,1.5-0.6,2c0.7,2.4,2.8,3.6,5.9,2.6
	c1.4-0.4,4.7-2.2,3.5-6c-0.4-1.1-0.8-1.1-1.8-0.8L157.3,75.2z"/>
<path id="Path_131" class="st3" d="M161.3,84.8c0.2-0.1,0.7-0.3,0.7,0.1c0,0.3-0.1,0.3-0.3,0.4c-1.4,0.7-2.8,1.8-2.6,3.6
	c0,1.1,1,2,2.1,1.9c0.1,0,0.1,0,0.2,0c1.3-0.2,1.4-1.2,2.2-3.8c0.4-1.4,0.9-2.4,2.6-2.6c1.6-0.3,3.2,0.8,3.5,2.5c0,0.1,0,0.2,0,0.3
	c0,0.8-0.1,1.7-0.3,2.5c0,0.2,0.3,0.6,0.4,0.8c0,0.2-0.2,0.2-0.6,0.3l-2.1,0.4c-0.3,0.1-0.5,0-0.6-0.3c0-0.4,2.9-0.9,2.5-3.6
	c0-0.9-0.7-1.6-1.6-1.6c-0.1,0-0.2,0-0.3,0c-1.1,0.1-1.2,1-1.8,3.2c-0.5,1.8-1.1,2.9-3.1,3.1c-1.8,0.3-3.5-0.9-3.8-2.7
	c0-0.1,0-0.2,0-0.3c0-0.9,0.1-1.8,0.3-2.7c0-0.4,0.2-0.4,0.5-0.5L161.3,84.8z"/>
</svg>
